<svg width="49" height="48" viewBox="0 0 49 48" fill="none" xmlns="http://www.w3.org/2000/svg">
<rect x="0.324219" width="48" height="48" rx="8" fill="#E5F0FF"/>
<path d="M27.8462 25.7537L36.5706 22.5811C37.0509 22.4065 37.4661 22.0889 37.7603 21.671C38.0546 21.2532 38.2137 20.7552 38.2162 20.2442C38.2188 19.7331 38.0647 19.2336 37.7746 18.8128C37.4846 18.3921 37.0726 18.0703 36.5941 17.8909L12.3382 8.79496C11.8888 8.62639 11.4003 8.59078 10.9312 8.6924C10.462 8.79401 10.032 9.02855 9.69261 9.36799C9.35319 9.70743 9.11867 10.1374 9.01708 10.6066C8.91549 11.0757 8.95111 11.5642 9.11971 12.0136V12.0136L18.2156 36.2694C18.3915 36.7476 18.7106 37.16 19.1293 37.4503C19.5481 37.7406 20.0462 37.8947 20.5557 37.8916H20.5688C21.0806 37.8922 21.5801 37.7344 21.9985 37.4397C22.417 37.145 22.7339 36.728 22.9059 36.246L26.0784 27.5216L35.9405 37.3837C36.175 37.6181 36.4929 37.7498 36.8245 37.7498C37.156 37.7498 37.474 37.6181 37.7084 37.3837C37.9429 37.1492 38.0746 36.8313 38.0746 36.4997C38.0746 36.1682 37.9429 35.8502 37.7084 35.6158L27.8462 25.7537Z" fill="url(#paint0_linear_15775_2818)"/>
<defs>
<linearGradient id="paint0_linear_15775_2818" x1="7.32624" y1="7.39237" x2="45.447" y2="15.8211" gradientUnits="userSpaceOnUse">
<stop stop-color="#176FEB"/>
<stop offset="1" stop-color="#FF80FF"/>
</linearGradient>
</defs>
</svg>
