<svg width="51" height="52" viewBox="0 0 51 52" fill="none" xmlns="http://www.w3.org/2000/svg">
<rect x="2.80078" y="0.702637" width="48" height="48" rx="8" transform="rotate(3 2.80078 0.702637)" fill="#E5F0FF"/>
<path d="M37.9977 29.0838C37.9741 29.5954 37.7926 30.0871 37.4782 30.4913C37.1637 30.8955 36.7317 31.1923 36.2416 31.3409L27.9456 33.9128L24.5205 41.8946C24.3188 42.3645 23.9779 42.7612 23.5437 43.0313C23.1095 43.3014 22.6029 43.4319 22.0922 43.4051C21.5816 43.3784 21.0914 43.1957 20.6878 42.8816C20.2842 42.5676 19.9866 42.1374 19.8352 41.649L17.2632 33.353L9.28149 29.928C8.81159 29.7263 8.41484 29.3853 8.14473 28.9511C7.87462 28.5169 7.74416 28.0103 7.77092 27.4997C7.79768 26.989 7.98039 26.4989 8.2944 26.0953C8.60841 25.6917 9.03863 25.3941 9.52704 25.2426L17.823 22.6706L21.2481 14.6889C21.4498 14.219 21.7907 13.8223 22.2249 13.5522C22.6591 13.2821 23.1657 13.1516 23.6764 13.1784C24.187 13.2051 24.6772 13.3878 25.0808 13.7018C25.4844 14.0159 25.782 14.4461 25.9334 14.9345L28.5054 23.2305L36.4871 26.6555C36.959 26.8545 37.3576 27.1949 37.6281 27.6297C37.8986 28.0646 38.0277 28.5726 37.9977 29.0838ZM29.9108 13.6394L32.4073 13.7702L32.2765 16.2668C32.2592 16.5979 32.374 16.9223 32.5959 17.1686C32.8177 17.415 33.1283 17.5632 33.4594 17.5805C33.7904 17.5979 34.1148 17.483 34.3612 17.2612C34.6076 17.0393 34.7557 16.7287 34.7731 16.3977L34.9039 13.9011L37.4005 14.0319C37.7316 14.0493 38.056 13.9344 38.3023 13.7126C38.5487 13.4907 38.6969 13.1801 38.7142 12.8491C38.7316 12.518 38.6167 12.1936 38.3948 11.9472C38.173 11.7009 37.8624 11.5527 37.5313 11.5353L35.0348 11.4045L35.1656 8.90793C35.183 8.57687 35.0681 8.25247 34.8462 8.0061C34.6244 7.75973 34.3138 7.61158 33.9827 7.59423C33.6517 7.57688 33.3273 7.69175 33.0809 7.91358C32.8345 8.13541 32.6864 8.44603 32.669 8.77709L32.5382 11.2737L30.0416 11.1428C29.7105 11.1255 29.3861 11.2404 29.1398 11.4622C28.8934 11.684 28.7453 11.9946 28.7279 12.3257C28.7106 12.6568 28.8254 12.9812 29.0473 13.2275C29.2691 13.4739 29.5797 13.6221 29.9108 13.6394ZM43.3803 19.3522L42.132 19.2867L42.1974 18.0385C42.2147 17.7074 42.0999 17.383 41.878 17.1366C41.6562 16.8903 41.3456 16.7421 41.0145 16.7248C40.6835 16.7074 40.3591 16.8223 40.1127 17.0441C39.8663 17.2659 39.7182 17.5766 39.7008 17.9076L39.6354 19.1559L38.3871 19.0905C38.056 19.0731 37.7316 19.188 37.4853 19.4098C37.2389 19.6317 37.0907 19.9423 37.0734 20.2734C37.056 20.6044 37.1709 20.9288 37.3928 21.1752C37.6146 21.4216 37.9252 21.5697 38.2563 21.5871L39.5046 21.6525L39.4391 22.9008C39.4218 23.2318 39.5367 23.5562 39.7585 23.8026C39.9803 24.049 40.2909 24.1971 40.622 24.2145C40.9531 24.2318 41.2775 24.117 41.5238 23.8951C41.7702 23.6733 41.9184 23.3627 41.9357 23.0316L42.0011 21.7833L43.2494 21.8487C43.5805 21.8661 43.9049 21.7512 44.1512 21.5294C44.3976 21.3076 44.5458 20.9969 44.5631 20.6659C44.5805 20.3348 44.4656 20.0104 44.2438 19.764C44.0219 19.5177 43.7113 19.3695 43.3803 19.3522Z" fill="url(#paint0_linear_15775_934)"/>
<defs>
<linearGradient id="paint0_linear_15775_934" x1="6.93438" y1="4.62824" x2="53.7298" y2="17.5776" gradientUnits="userSpaceOnUse">
<stop stop-color="#176FEB"/>
<stop offset="1" stop-color="#FF80FF"/>
</linearGradient>
</defs>
</svg>
